<mxfile host="app.diagrams.net" agent="Mozilla/5.0 (Windows NT 10.0; Win64; x64) AppleWebKit/537.36 (KHTML, like Gecko) Chrome/130.0.0.0 YaBrowser/24.12.0.0 Safari/537.36" version="26.0.11">
  <diagram name="Страница — 1" id="IfizfpApXZd8FMeZeS9F">
    <mxGraphModel dx="746" dy="457" grid="1" gridSize="10" guides="1" tooltips="1" connect="1" arrows="1" fold="1" page="1" pageScale="1" pageWidth="827" pageHeight="1169" math="0" shadow="0">
      <root>
        <mxCell id="0" />
        <mxCell id="1" parent="0" />
        <mxCell id="V3BS7eX_A-Yx4tdiAwCP-1" value="Hogwarts" style="swimlane;fontStyle=1;align=center;verticalAlign=top;childLayout=stackLayout;horizontal=1;startSize=26;horizontalStack=0;resizeParent=1;resizeParentMax=0;resizeLast=0;collapsible=1;marginBottom=0;whiteSpace=wrap;html=1;" vertex="1" parent="1">
          <mxGeometry x="190" y="30" width="380" height="130" as="geometry" />
        </mxCell>
        <mxCell id="V3BS7eX_A-Yx4tdiAwCP-3" value="" style="line;strokeWidth=1;fillColor=none;align=left;verticalAlign=middle;spacingTop=-1;spacingLeft=3;spacingRight=3;rotatable=0;labelPosition=right;points=[];portConstraint=eastwest;strokeColor=inherit;" vertex="1" parent="V3BS7eX_A-Yx4tdiAwCP-1">
          <mxGeometry y="26" width="380" height="8" as="geometry" />
        </mxCell>
        <mxCell id="V3BS7eX_A-Yx4tdiAwCP-4" value="+ enroll_student(student: HogwartsStudent)" style="text;strokeColor=none;fillColor=none;align=left;verticalAlign=top;spacingLeft=4;spacingRight=4;overflow=hidden;rotatable=0;points=[[0,0.5],[1,0.5]];portConstraint=eastwest;whiteSpace=wrap;html=1;" vertex="1" parent="V3BS7eX_A-Yx4tdiAwCP-1">
          <mxGeometry y="34" width="380" height="26" as="geometry" />
        </mxCell>
        <mxCell id="V3BS7eX_A-Yx4tdiAwCP-22" value="+ teach_spell(spell: Spell)" style="text;strokeColor=none;fillColor=none;align=left;verticalAlign=top;spacingLeft=4;spacingRight=4;overflow=hidden;rotatable=0;points=[[0,0.5],[1,0.5]];portConstraint=eastwest;whiteSpace=wrap;html=1;" vertex="1" parent="V3BS7eX_A-Yx4tdiAwCP-1">
          <mxGeometry y="60" width="380" height="26" as="geometry" />
        </mxCell>
        <mxCell id="V3BS7eX_A-Yx4tdiAwCP-23" value="+ simulate_duel(student1: HogwartsStudent, student2: HogwartsStudent" style="text;strokeColor=none;fillColor=none;align=left;verticalAlign=top;spacingLeft=4;spacingRight=4;overflow=hidden;rotatable=0;points=[[0,0.5],[1,0.5]];portConstraint=eastwest;whiteSpace=wrap;html=1;" vertex="1" parent="V3BS7eX_A-Yx4tdiAwCP-1">
          <mxGeometry y="86" width="380" height="44" as="geometry" />
        </mxCell>
        <mxCell id="V3BS7eX_A-Yx4tdiAwCP-5" value="HogwartsStudent" style="swimlane;fontStyle=1;align=center;verticalAlign=top;childLayout=stackLayout;horizontal=1;startSize=26;horizontalStack=0;resizeParent=1;resizeParentMax=0;resizeLast=0;collapsible=1;marginBottom=0;whiteSpace=wrap;html=1;" vertex="1" parent="1">
          <mxGeometry x="90" y="257" width="220" height="164" as="geometry" />
        </mxCell>
        <mxCell id="V3BS7eX_A-Yx4tdiAwCP-6" value="- name: str" style="text;strokeColor=none;fillColor=none;align=left;verticalAlign=top;spacingLeft=4;spacingRight=4;overflow=hidden;rotatable=0;points=[[0,0.5],[1,0.5]];portConstraint=eastwest;whiteSpace=wrap;html=1;" vertex="1" parent="V3BS7eX_A-Yx4tdiAwCP-5">
          <mxGeometry y="26" width="220" height="26" as="geometry" />
        </mxCell>
        <mxCell id="V3BS7eX_A-Yx4tdiAwCP-14" value="- house: str" style="text;strokeColor=none;fillColor=none;align=left;verticalAlign=top;spacingLeft=4;spacingRight=4;overflow=hidden;rotatable=0;points=[[0,0.5],[1,0.5]];portConstraint=eastwest;whiteSpace=wrap;html=1;" vertex="1" parent="V3BS7eX_A-Yx4tdiAwCP-5">
          <mxGeometry y="52" width="220" height="26" as="geometry" />
        </mxCell>
        <mxCell id="V3BS7eX_A-Yx4tdiAwCP-13" value="- mp: int" style="text;strokeColor=none;fillColor=none;align=left;verticalAlign=top;spacingLeft=4;spacingRight=4;overflow=hidden;rotatable=0;points=[[0,0.5],[1,0.5]];portConstraint=eastwest;whiteSpace=wrap;html=1;" vertex="1" parent="V3BS7eX_A-Yx4tdiAwCP-5">
          <mxGeometry y="78" width="220" height="26" as="geometry" />
        </mxCell>
        <mxCell id="V3BS7eX_A-Yx4tdiAwCP-7" value="" style="line;strokeWidth=1;fillColor=none;align=left;verticalAlign=middle;spacingTop=-1;spacingLeft=3;spacingRight=3;rotatable=0;labelPosition=right;points=[];portConstraint=eastwest;strokeColor=inherit;" vertex="1" parent="V3BS7eX_A-Yx4tdiAwCP-5">
          <mxGeometry y="104" width="220" height="8" as="geometry" />
        </mxCell>
        <mxCell id="V3BS7eX_A-Yx4tdiAwCP-21" value="+ cast_spell(target: HogwartsStudent" style="text;strokeColor=none;fillColor=none;align=left;verticalAlign=top;spacingLeft=4;spacingRight=4;overflow=hidden;rotatable=0;points=[[0,0.5],[1,0.5]];portConstraint=eastwest;whiteSpace=wrap;html=1;" vertex="1" parent="V3BS7eX_A-Yx4tdiAwCP-5">
          <mxGeometry y="112" width="220" height="26" as="geometry" />
        </mxCell>
        <mxCell id="V3BS7eX_A-Yx4tdiAwCP-8" value="+ learn_spell(spell: Spell)" style="text;strokeColor=none;fillColor=none;align=left;verticalAlign=top;spacingLeft=4;spacingRight=4;overflow=hidden;rotatable=0;points=[[0,0.5],[1,0.5]];portConstraint=eastwest;whiteSpace=wrap;html=1;" vertex="1" parent="V3BS7eX_A-Yx4tdiAwCP-5">
          <mxGeometry y="138" width="220" height="26" as="geometry" />
        </mxCell>
        <mxCell id="V3BS7eX_A-Yx4tdiAwCP-9" value="Spell" style="swimlane;fontStyle=1;align=center;verticalAlign=top;childLayout=stackLayout;horizontal=1;startSize=26;horizontalStack=0;resizeParent=1;resizeParentMax=0;resizeLast=0;collapsible=1;marginBottom=0;whiteSpace=wrap;html=1;" vertex="1" parent="1">
          <mxGeometry x="460" y="270" width="190" height="138" as="geometry" />
        </mxCell>
        <mxCell id="V3BS7eX_A-Yx4tdiAwCP-10" value="- name: str" style="text;strokeColor=none;fillColor=none;align=left;verticalAlign=top;spacingLeft=4;spacingRight=4;overflow=hidden;rotatable=0;points=[[0,0.5],[1,0.5]];portConstraint=eastwest;whiteSpace=wrap;html=1;" vertex="1" parent="V3BS7eX_A-Yx4tdiAwCP-9">
          <mxGeometry y="26" width="190" height="26" as="geometry" />
        </mxCell>
        <mxCell id="V3BS7eX_A-Yx4tdiAwCP-17" value="- description: str" style="text;strokeColor=none;fillColor=none;align=left;verticalAlign=top;spacingLeft=4;spacingRight=4;overflow=hidden;rotatable=0;points=[[0,0.5],[1,0.5]];portConstraint=eastwest;whiteSpace=wrap;html=1;" vertex="1" parent="V3BS7eX_A-Yx4tdiAwCP-9">
          <mxGeometry y="52" width="190" height="26" as="geometry" />
        </mxCell>
        <mxCell id="V3BS7eX_A-Yx4tdiAwCP-18" value="- cost_mana: int" style="text;strokeColor=none;fillColor=none;align=left;verticalAlign=top;spacingLeft=4;spacingRight=4;overflow=hidden;rotatable=0;points=[[0,0.5],[1,0.5]];portConstraint=eastwest;whiteSpace=wrap;html=1;" vertex="1" parent="V3BS7eX_A-Yx4tdiAwCP-9">
          <mxGeometry y="78" width="190" height="26" as="geometry" />
        </mxCell>
        <mxCell id="V3BS7eX_A-Yx4tdiAwCP-11" value="" style="line;strokeWidth=1;fillColor=none;align=left;verticalAlign=middle;spacingTop=-1;spacingLeft=3;spacingRight=3;rotatable=0;labelPosition=right;points=[];portConstraint=eastwest;strokeColor=inherit;" vertex="1" parent="V3BS7eX_A-Yx4tdiAwCP-9">
          <mxGeometry y="104" width="190" height="8" as="geometry" />
        </mxCell>
        <mxCell id="V3BS7eX_A-Yx4tdiAwCP-12" value="+ cast(target: HogwartsStudent" style="text;strokeColor=none;fillColor=none;align=left;verticalAlign=top;spacingLeft=4;spacingRight=4;overflow=hidden;rotatable=0;points=[[0,0.5],[1,0.5]];portConstraint=eastwest;whiteSpace=wrap;html=1;" vertex="1" parent="V3BS7eX_A-Yx4tdiAwCP-9">
          <mxGeometry y="112" width="190" height="26" as="geometry" />
        </mxCell>
        <mxCell id="V3BS7eX_A-Yx4tdiAwCP-24" value="1" style="endArrow=open;html=1;endSize=12;startArrow=diamondThin;startSize=14;startFill=0;edgeStyle=orthogonalEdgeStyle;align=left;verticalAlign=bottom;rounded=0;entryX=0.582;entryY=0.002;entryDx=0;entryDy=0;entryPerimeter=0;" edge="1" parent="1" source="V3BS7eX_A-Yx4tdiAwCP-1" target="V3BS7eX_A-Yx4tdiAwCP-5">
          <mxGeometry x="-1" y="3" relative="1" as="geometry">
            <mxPoint x="320" y="230" as="sourcePoint" />
            <mxPoint x="480" y="230" as="targetPoint" />
          </mxGeometry>
        </mxCell>
        <mxCell id="V3BS7eX_A-Yx4tdiAwCP-26" value="1" style="endArrow=open;html=1;endSize=12;startArrow=diamondThin;startSize=14;startFill=0;edgeStyle=orthogonalEdgeStyle;align=left;verticalAlign=bottom;rounded=0;entryX=0.582;entryY=0.002;entryDx=0;entryDy=0;entryPerimeter=0;" edge="1" parent="1" source="V3BS7eX_A-Yx4tdiAwCP-1">
          <mxGeometry x="-1" y="3" relative="1" as="geometry">
            <mxPoint x="722" y="173" as="sourcePoint" />
            <mxPoint x="560" y="270" as="targetPoint" />
            <Array as="points">
              <mxPoint x="380" y="210" />
              <mxPoint x="561" y="210" />
            </Array>
          </mxGeometry>
        </mxCell>
        <mxCell id="V3BS7eX_A-Yx4tdiAwCP-28" value="*" style="text;html=1;align=center;verticalAlign=middle;resizable=0;points=[];autosize=1;strokeColor=none;fillColor=none;" vertex="1" parent="1">
          <mxGeometry x="215" y="228" width="30" height="30" as="geometry" />
        </mxCell>
        <mxCell id="V3BS7eX_A-Yx4tdiAwCP-29" value="*" style="text;html=1;align=center;verticalAlign=middle;resizable=0;points=[];autosize=1;strokeColor=none;fillColor=none;" vertex="1" parent="1">
          <mxGeometry x="535" y="238" width="30" height="30" as="geometry" />
        </mxCell>
        <mxCell id="V3BS7eX_A-Yx4tdiAwCP-30" value="1" style="endArrow=open;html=1;endSize=12;startArrow=diamondThin;startSize=14;startFill=0;edgeStyle=orthogonalEdgeStyle;align=left;verticalAlign=bottom;rounded=0;exitX=1;exitY=0.5;exitDx=0;exitDy=0;" edge="1" parent="1" source="V3BS7eX_A-Yx4tdiAwCP-13" target="V3BS7eX_A-Yx4tdiAwCP-9">
          <mxGeometry x="-0.7736" y="10" relative="1" as="geometry">
            <mxPoint x="330" y="350" as="sourcePoint" />
            <mxPoint x="440" y="350" as="targetPoint" />
            <Array as="points">
              <mxPoint x="310" y="340" />
              <mxPoint x="385" y="340" />
              <mxPoint x="385" y="339" />
            </Array>
            <mxPoint as="offset" />
          </mxGeometry>
        </mxCell>
        <mxCell id="V3BS7eX_A-Yx4tdiAwCP-31" value="1..*" style="text;html=1;align=center;verticalAlign=middle;resizable=0;points=[];autosize=1;strokeColor=none;fillColor=none;" vertex="1" parent="1">
          <mxGeometry x="420" y="308" width="40" height="30" as="geometry" />
        </mxCell>
        <mxCell id="V3BS7eX_A-Yx4tdiAwCP-33" value="Use" style="endArrow=open;endSize=12;dashed=1;html=1;rounded=0;" edge="1" parent="1" source="V3BS7eX_A-Yx4tdiAwCP-9" target="V3BS7eX_A-Yx4tdiAwCP-5">
          <mxGeometry width="160" relative="1" as="geometry">
            <mxPoint x="566" y="420" as="sourcePoint" />
            <mxPoint x="557" y="420" as="targetPoint" />
            <Array as="points">
              <mxPoint x="560" y="520" />
              <mxPoint x="370" y="520" />
              <mxPoint x="200" y="520" />
            </Array>
          </mxGeometry>
        </mxCell>
      </root>
    </mxGraphModel>
  </diagram>
</mxfile>
